<?xml version="1.0" encoding="utf-8"?>
<!-- Generator: Adobe Illustrator 16.0.0, SVG Export Plug-In . SVG Version: 6.00 Build 0)  -->
<!DOCTYPE svg PUBLIC "-//W3C//DTD SVG 1.1//EN" "http://www.w3.org/Graphics/SVG/1.1/DTD/svg11.dtd">
<svg version="1.1" id="Layer_1" xmlns="http://www.w3.org/2000/svg" xmlns:xlink="http://www.w3.org/1999/xlink" x="0px" y="0px"
	 width="800px" height="800px" viewBox="0 0 800 800" enable-background="new 0 0 800 800" xml:space="preserve">
<path style="fill:#ffffff;" d="M410.171,9.226h-19.938c-131.133,0-237.814,106.682-237.814,237.814v307.353c0,131.134,106.682,237.814,237.814,237.814
	h19.938c131.133,0,237.813-106.681,237.813-237.814V247.04C647.984,115.907,541.304,9.226,410.171,9.226z M621.572,554.393
	c0,116.561-94.842,211.402-211.401,211.402h-19.938c-116.561,0-211.402-94.842-211.402-211.402V247.04
	c0-115.451,93.088-209.468,208.152-211.247v82.203c-13.283,5.262-22.698,18.185-22.698,33.351v80.295
	c0,15.166,9.415,28.089,22.698,33.351v135.725c0,7.299,5.906,13.206,13.206,13.206s13.206-5.907,13.206-13.206V264.992
	c13.31-5.262,22.75-18.185,22.75-33.351v-80.295c0-15.166-9.44-28.089-22.75-33.351V35.793
	c115.064,1.754,208.178,95.771,208.178,211.247V554.393z"/>
</svg>
